<svg xmlns="http://www.w3.org/2000/svg" width="208" height="26" viewBox="0 0 208 26">
  <defs><style type="text/css" id="current-color-scheme">.ColorScheme-Text{color:#dedede;}.ColorScheme-Background{color:#242424;}</style></defs>
  <g id="22-22-brightness-high" class="ColorScheme-Text" transform="translate(0,0)">
    <rect x="0" y="0" width="22" height="22" fill="none"/>
    <circle class="ColorScheme-Text" cx="11" cy="11" r="3.6" fill="none" stroke="currentColor" stroke-width="1.9"/>
    <path class="ColorScheme-Text" d="M11.00 4.80 L11.00 2.40" fill="none" stroke="currentColor" stroke-width="1.9" stroke-linecap="round" stroke-linejoin="round"/>
    <path class="ColorScheme-Text" d="M15.38 6.62 L17.08 4.92" fill="none" stroke="currentColor" stroke-width="1.9" stroke-linecap="round" stroke-linejoin="round"/>
    <path class="ColorScheme-Text" d="M17.20 11.00 L19.60 11.00" fill="none" stroke="currentColor" stroke-width="1.9" stroke-linecap="round" stroke-linejoin="round"/>
    <path class="ColorScheme-Text" d="M15.38 15.38 L17.08 17.08" fill="none" stroke="currentColor" stroke-width="1.9" stroke-linecap="round" stroke-linejoin="round"/>
    <path class="ColorScheme-Text" d="M11.00 17.20 L11.00 19.60" fill="none" stroke="currentColor" stroke-width="1.9" stroke-linecap="round" stroke-linejoin="round"/>
    <path class="ColorScheme-Text" d="M6.62 15.38 L4.92 17.08" fill="none" stroke="currentColor" stroke-width="1.9" stroke-linecap="round" stroke-linejoin="round"/>
    <path class="ColorScheme-Text" d="M4.80 11.00 L2.40 11.00" fill="none" stroke="currentColor" stroke-width="1.9" stroke-linecap="round" stroke-linejoin="round"/>
    <path class="ColorScheme-Text" d="M6.62 6.62 L4.92 4.92" fill="none" stroke="currentColor" stroke-width="1.9" stroke-linecap="round" stroke-linejoin="round"/>
  </g>
  <g id="brightness-high" class="ColorScheme-Text" transform="translate(26,0)">
    <rect x="0" y="0" width="22" height="22" fill="none"/>
    <circle class="ColorScheme-Text" cx="11" cy="11" r="3.6" fill="none" stroke="currentColor" stroke-width="1.9"/>
    <path class="ColorScheme-Text" d="M11.00 4.80 L11.00 2.40" fill="none" stroke="currentColor" stroke-width="1.9" stroke-linecap="round" stroke-linejoin="round"/>
    <path class="ColorScheme-Text" d="M15.38 6.62 L17.08 4.92" fill="none" stroke="currentColor" stroke-width="1.9" stroke-linecap="round" stroke-linejoin="round"/>
    <path class="ColorScheme-Text" d="M17.20 11.00 L19.60 11.00" fill="none" stroke="currentColor" stroke-width="1.9" stroke-linecap="round" stroke-linejoin="round"/>
    <path class="ColorScheme-Text" d="M15.38 15.38 L17.08 17.08" fill="none" stroke="currentColor" stroke-width="1.9" stroke-linecap="round" stroke-linejoin="round"/>
    <path class="ColorScheme-Text" d="M11.00 17.20 L11.00 19.60" fill="none" stroke="currentColor" stroke-width="1.9" stroke-linecap="round" stroke-linejoin="round"/>
    <path class="ColorScheme-Text" d="M6.62 15.38 L4.92 17.08" fill="none" stroke="currentColor" stroke-width="1.9" stroke-linecap="round" stroke-linejoin="round"/>
    <path class="ColorScheme-Text" d="M4.80 11.00 L2.40 11.00" fill="none" stroke="currentColor" stroke-width="1.9" stroke-linecap="round" stroke-linejoin="round"/>
    <path class="ColorScheme-Text" d="M6.62 6.62 L4.92 4.92" fill="none" stroke="currentColor" stroke-width="1.9" stroke-linecap="round" stroke-linejoin="round"/>
  </g>
  <g id="22-22-brightness-low" class="ColorScheme-Text" transform="translate(52,0)">
    <rect x="0" y="0" width="22" height="22" fill="none"/>
    <circle class="ColorScheme-Text" cx="11" cy="11" r="3.6" fill="none" stroke="currentColor" stroke-width="1.9"/>
    <path class="ColorScheme-Text" d="M11.00 4.80 L11.00 2.40" fill="none" stroke="currentColor" stroke-width="1.9" stroke-linecap="round" stroke-linejoin="round"/>
    <path class="ColorScheme-Text" d="M15.38 6.62 L17.08 4.92" fill="none" stroke="currentColor" stroke-width="1.9" stroke-linecap="round" stroke-linejoin="round"/>
    <path class="ColorScheme-Text" d="M17.20 11.00 L19.60 11.00" fill="none" stroke="currentColor" stroke-width="1.9" stroke-linecap="round" stroke-linejoin="round"/>
    <path class="ColorScheme-Text" d="M15.38 15.38 L17.08 17.08" fill="none" stroke="currentColor" stroke-width="1.9" stroke-linecap="round" stroke-linejoin="round"/>
    <path class="ColorScheme-Text" d="M11.00 17.20 L11.00 19.60" fill="none" stroke="currentColor" stroke-width="1.9" stroke-linecap="round" stroke-linejoin="round"/>
    <path class="ColorScheme-Text" d="M6.62 15.38 L4.92 17.08" fill="none" stroke="currentColor" stroke-width="1.9" stroke-linecap="round" stroke-linejoin="round"/>
    <path class="ColorScheme-Text" d="M4.80 11.00 L2.40 11.00" fill="none" stroke="currentColor" stroke-width="1.9" stroke-linecap="round" stroke-linejoin="round"/>
    <path class="ColorScheme-Text" d="M6.62 6.62 L4.92 4.92" fill="none" stroke="currentColor" stroke-width="1.9" stroke-linecap="round" stroke-linejoin="round"/>
  </g>
  <g id="brightness-low" class="ColorScheme-Text" transform="translate(78,0)">
    <rect x="0" y="0" width="22" height="22" fill="none"/>
    <circle class="ColorScheme-Text" cx="11" cy="11" r="3.6" fill="none" stroke="currentColor" stroke-width="1.9"/>
    <path class="ColorScheme-Text" d="M11.00 4.80 L11.00 2.40" fill="none" stroke="currentColor" stroke-width="1.9" stroke-linecap="round" stroke-linejoin="round"/>
    <path class="ColorScheme-Text" d="M15.38 6.62 L17.08 4.92" fill="none" stroke="currentColor" stroke-width="1.9" stroke-linecap="round" stroke-linejoin="round"/>
    <path class="ColorScheme-Text" d="M17.20 11.00 L19.60 11.00" fill="none" stroke="currentColor" stroke-width="1.9" stroke-linecap="round" stroke-linejoin="round"/>
    <path class="ColorScheme-Text" d="M15.38 15.38 L17.08 17.08" fill="none" stroke="currentColor" stroke-width="1.9" stroke-linecap="round" stroke-linejoin="round"/>
    <path class="ColorScheme-Text" d="M11.00 17.20 L11.00 19.60" fill="none" stroke="currentColor" stroke-width="1.9" stroke-linecap="round" stroke-linejoin="round"/>
    <path class="ColorScheme-Text" d="M6.62 15.38 L4.92 17.08" fill="none" stroke="currentColor" stroke-width="1.9" stroke-linecap="round" stroke-linejoin="round"/>
    <path class="ColorScheme-Text" d="M4.80 11.00 L2.40 11.00" fill="none" stroke="currentColor" stroke-width="1.9" stroke-linecap="round" stroke-linejoin="round"/>
    <path class="ColorScheme-Text" d="M6.62 6.62 L4.92 4.92" fill="none" stroke="currentColor" stroke-width="1.9" stroke-linecap="round" stroke-linejoin="round"/>
  </g>
</svg>
